<svg xmlns="http://www.w3.org/2000/svg" width="1200" height="230" viewBox="0 0 1200 230" role="img" aria-labelledby="t d">
<title id="t">GitHub telemetry</title>
<desc id="d">GitHub telemetry for sham-2510 (public + private), last 12 months: 543 contributions, public 75, private 468; current streak 0 days, longest 10 days; 79 active days; repositories 11 public, 20 private; languages TypeScript 55.3%, Python 23.7%, HTML 6.6%, Shell 3.9%, C# 3.0%, JavaScript 2.8%, Other 4.7%. Updated 2026-10-02.</desc>
<defs><linearGradient id="g" x1="0%" y1="0%" x2="100%" y2="0%"><stop offset="0%" stop-color="#3B9EFF"/><stop offset="55%" stop-color="#A78BFA"/><stop offset="100%" stop-color="#2DD4BF"/></linearGradient></defs>
<style>
.s{font-family:'Segoe UI', -apple-system, BlinkMacSystemFont, Helvetica, Arial, sans-serif}
.m{font-family:ui-monospace, SFMono-Regular, 'Cascadia Code', Consolas, Menlo, monospace}
@keyframes grow{from{transform:scaleX(0)}}.bar{transform-box:fill-box;transform-origin:0 50%;animation:grow 1.4s ease-out both}@keyframes up{from{opacity:0;transform:translateY(6px)}}.val{animation:up .8s ease-out both}
@media (prefers-reduced-motion: reduce){*{animation:none!important}.smil,.beam{display:none}}
</style>
<rect x="20" y="20" width="236" height="170" rx="14" fill="#161B22" stroke="#30363D"/><text class="m" x="38" y="46" font-size="11.5" fill="#7D8590">CONTRIBUTIONS &#183; 12 MO</text>
<text class="s val" x="38" y="102" font-size="44" font-weight="800" fill="url(#g)">543</text>
<rect x="38" y="122" width="200" height="8" rx="4" fill="#30363D"/>
<rect class="bar" x="38" y="122" width="27.6" height="8" rx="4" fill="#3B9EFF"/>
<rect class="bar" x="65.6" y="122" width="172.4" height="8" rx="4" fill="#F0B429" style="animation-delay:.4s"/>
<text class="m" x="38" y="154" font-size="11.5"><tspan fill="#3B9EFF">public 75</tspan><tspan fill="#7D8590"> &#183; </tspan><tspan fill="#F0B429">private 468</tspan></text>
<text class="m" x="38" y="174" font-size="10.5" fill="#7D8590">counts only &#183; no repo names</text>
<rect x="272" y="20" width="160" height="170" rx="14" fill="#161B22" stroke="#30363D"/><text class="m" x="290" y="46" font-size="11.5" fill="#7D8590">STREAKS</text>
<text class="s val" x="290" y="98" font-size="34" font-weight="800" fill="#2DD4BF">0<tspan font-size="16" fill="#7D8590"> d</tspan></text><text class="m" x="290" y="118" font-size="11" fill="#7D8590">current</text><text class="s val" x="290" y="158" font-size="26" font-weight="800" fill="#A78BFA" style="animation-delay:.2s">10<tspan font-size="14" fill="#7D8590"> d</tspan></text><text class="m" x="290" y="176" font-size="11" fill="#7D8590">longest</text>
<rect x="448" y="20" width="160" height="170" rx="14" fill="#161B22" stroke="#30363D"/><text class="m" x="466" y="46" font-size="11.5" fill="#7D8590">ACTIVE DAYS</text>
<text class="s val" x="466" y="102" font-size="40" font-weight="800" fill="#3B9EFF">79</text><text class="m" x="466" y="124" font-size="11" fill="#7D8590">of 365</text>
<rect x="466.0" y="140" width="7" height="7" rx="2" fill="#30363D"/><rect x="475.5" y="140" width="7" height="7" rx="2" fill="#30363D"/><rect x="485.0" y="140" width="7" height="7" rx="2" fill="#30363D"/><rect x="494.5" y="140" width="7" height="7" rx="2" fill="#30363D"/><rect x="504.0" y="140" width="7" height="7" rx="2" fill="#30363D"/><rect x="513.5" y="140" width="7" height="7" rx="2" fill="#30363D"/><rect x="523.0" y="140" width="7" height="7" rx="2" fill="#30363D"/><rect x="532.5" y="140" width="7" height="7" rx="2" fill="#3B9EFF"/><rect x="542.0" y="140" width="7" height="7" rx="2" fill="#30363D"/><rect x="551.5" y="140" width="7" height="7" rx="2" fill="#30363D"/><rect x="561.0" y="140" width="7" height="7" rx="2" fill="#30363D"/><rect x="570.5" y="140" width="7" height="7" rx="2" fill="#30363D"/><rect x="580.0" y="140" width="7" height="7" rx="2" fill="#30363D"/><rect x="466.0" y="149" width="7" height="7" rx="2" fill="#30363D"/><rect x="475.5" y="149" width="7" height="7" rx="2" fill="#30363D"/><rect x="485.0" y="149" width="7" height="7" rx="2" fill="#3B9EFF"/><rect x="494.5" y="149" width="7" height="7" rx="2" fill="#3B9EFF"/><rect x="504.0" y="149" width="7" height="7" rx="2" fill="#3B9EFF"/><rect x="513.5" y="149" width="7" height="7" rx="2" fill="#3B9EFF"/><rect x="523.0" y="149" width="7" height="7" rx="2" fill="#3B9EFF"/><rect x="532.5" y="149" width="7" height="7" rx="2" fill="#30363D"/><rect x="542.0" y="149" width="7" height="7" rx="2" fill="#30363D"/><rect x="551.5" y="149" width="7" height="7" rx="2" fill="#30363D"/><rect x="561.0" y="149" width="7" height="7" rx="2" fill="#3B9EFF"/><rect x="570.5" y="149" width="7" height="7" rx="2" fill="#3B9EFF"/><rect x="580.0" y="149" width="7" height="7" rx="2" fill="#3B9EFF"/><rect x="466.0" y="158" width="7" height="7" rx="2" fill="#30363D"/><rect x="475.5" y="158" width="7" height="7" rx="2" fill="#3B9EFF"/><rect x="485.0" y="158" width="7" height="7" rx="2" fill="#30363D"/><rect x="494.5" y="158" width="7" height="7" rx="2" fill="#3B9EFF"/><rect x="504.0" y="158" width="7" height="7" rx="2" fill="#3B9EFF"/><rect x="513.5" y="158" width="7" height="7" rx="2" fill="#3B9EFF"/><rect x="523.0" y="158" width="7" height="7" rx="2" fill="#30363D"/><rect x="532.5" y="158" width="7" height="7" rx="2" fill="#30363D"/><rect x="542.0" y="158" width="7" height="7" rx="2" fill="#3B9EFF"/><rect x="551.5" y="158" width="7" height="7" rx="2" fill="#30363D"/><rect x="561.0" y="158" width="7" height="7" rx="2" fill="#3B9EFF"/><rect x="570.5" y="158" width="7" height="7" rx="2" fill="#30363D"/><rect x="580.0" y="158" width="7" height="7" rx="2" fill="#30363D"/><rect x="466.0" y="167" width="7" height="7" rx="2" fill="#3B9EFF"/><rect x="475.5" y="167" width="7" height="7" rx="2" fill="#30363D"/><rect x="485.0" y="167" width="7" height="7" rx="2" fill="#3B9EFF"/><rect x="494.5" y="167" width="7" height="7" rx="2" fill="#3B9EFF"/><rect x="504.0" y="167" width="7" height="7" rx="2" fill="#3B9EFF"/><rect x="513.5" y="167" width="7" height="7" rx="2" fill="#3B9EFF"/><rect x="523.0" y="167" width="7" height="7" rx="2" fill="#3B9EFF"/><rect x="532.5" y="167" width="7" height="7" rx="2" fill="#3B9EFF"/><rect x="542.0" y="167" width="7" height="7" rx="2" fill="#3B9EFF"/><rect x="551.5" y="167" width="7" height="7" rx="2" fill="#3B9EFF"/><rect x="561.0" y="167" width="7" height="7" rx="2" fill="#3B9EFF"/><rect x="570.5" y="167" width="7" height="7" rx="2" fill="#3B9EFF"/><rect x="580.0" y="167" width="7" height="7" rx="2" fill="#3B9EFF"/>
<rect x="624" y="20" width="160" height="170" rx="14" fill="#161B22" stroke="#30363D"/><text class="m" x="642" y="46" font-size="11.5" fill="#7D8590">REPOSITORIES</text>
<text class="s val" x="642" y="102" font-size="40" font-weight="800" fill="#A78BFA">31</text><text class="m" x="642" y="130" font-size="11.5" fill="#3B9EFF">11 public</text><text class="m" x="642" y="150" font-size="11.5" fill="#F0B429">20 private</text><text class="m" x="642" y="174" font-size="10.5" fill="#7D8590">owned &#183; non-fork</text>
<rect x="800" y="20" width="380" height="170" rx="14" fill="#161B22" stroke="#30363D"/><text class="m" x="818" y="46" font-size="11.5" fill="#7D8590">LANGUAGE MIX &#183; BYTES &#183; PUBLIC + PRIVATE</text>
<rect class="bar" x="818.0" y="62" width="190.2" height="12" fill="#3178c6" style="animation-delay:0.0s"/>
<rect class="bar" x="1008.2" y="62" width="81.5" height="12" fill="#3572A5" style="animation-delay:0.1s"/>
<rect class="bar" x="1089.8" y="62" width="22.7" height="12" fill="#e34c26" style="animation-delay:0.2s"/>
<rect class="bar" x="1112.5" y="62" width="13.4" height="12" fill="#89e051" style="animation-delay:0.3s"/>
<rect class="bar" x="1125.9" y="62" width="10.3" height="12" fill="#7355dd" style="animation-delay:0.4s"/>
<rect class="bar" x="1136.2" y="62" width="9.6" height="12" fill="#f1e05a" style="animation-delay:0.5s"/>
<rect class="bar" x="1145.8" y="62" width="16.2" height="12" fill="#8B949E" style="animation-delay:0.6s"/>
<circle cx="823" cy="96" r="5" fill="#3178c6"/><text class="m" x="834" y="100" font-size="11.5" fill="#E6EDF3">TypeScript<tspan fill="#7D8590"> 55.3%</tspan></text>
<circle cx="1001" cy="96" r="5" fill="#3572A5"/><text class="m" x="1012" y="100" font-size="11.5" fill="#E6EDF3">Python<tspan fill="#7D8590"> 23.7%</tspan></text>
<circle cx="823" cy="117" r="5" fill="#e34c26"/><text class="m" x="834" y="121" font-size="11.5" fill="#E6EDF3">HTML<tspan fill="#7D8590"> 6.6%</tspan></text>
<circle cx="1001" cy="117" r="5" fill="#89e051"/><text class="m" x="1012" y="121" font-size="11.5" fill="#E6EDF3">Shell<tspan fill="#7D8590"> 3.9%</tspan></text>
<circle cx="823" cy="138" r="5" fill="#7355dd"/><text class="m" x="834" y="142" font-size="11.5" fill="#E6EDF3">C#<tspan fill="#7D8590"> 3.0%</tspan></text>
<circle cx="1001" cy="138" r="5" fill="#f1e05a"/><text class="m" x="1012" y="142" font-size="11.5" fill="#E6EDF3">JavaScript<tspan fill="#7D8590"> 2.8%</tspan></text>
<circle cx="823" cy="159" r="5" fill="#8B949E"/><text class="m" x="834" y="163" font-size="11.5" fill="#E6EDF3">Other<tspan fill="#7D8590"> 4.7%</tspan></text>
<text class="m" x="20" y="216" font-size="11" fill="#7D8590">self-rendered from GitHub data &#183; includes private work (counts as of 2026-10-02) &#183; updated 2026-10-02</text>
</svg>
